<svg xmlns="http://www.w3.org/2000/svg">
<symbol viewBox="0 0 512 512" fill="currentColor" id="boot"><path d="M128 0H32V64L64 256 32 384V512H160V464l144 48h16 24H480h8 24V464H488h-8V384L288 288V0H160V240v16H128V240 0z"/></symbol>
<symbol viewBox="0 0 512 512" fill="currentColor" id="coins"><path d="M512 80c0 18-14.3 34.6-38.4 48c-29.1 16.1-72.5 27.5-122.3 30.9c-3.7-1.8-7.4-3.5-11.3-5C300.6 137.4 248.2 128 192 128c-8.3 0-16.4 .2-24.5 .6l-1.1-.6C142.3 114.6 128 98 128 80c0-44.2 86-80 192-80S512 35.8 512 80zM160.7 161.1c10.2-.7 20.7-1.1 31.3-1.1c62.2 0 117.4 12.3 152.5 31.4C369.3 204.9 384 221.7 384 240c0 4-.7 7.9-2.1 11.7c-4.6 13.2-17 25.3-35 35.5c0 0 0 0 0 0c-.1 .1-.3 .1-.4 .2l0 0 0 0c-.3 .2-.6 .3-.9 .5c-35 19.4-90.8 32-153.6 32c-59.6 0-112.9-11.3-148.2-29.1c-1.9-.9-3.7-1.9-5.5-2.9C14.3 274.6 0 258 0 240c0-34.8 53.4-64.5 128-75.4c10.5-1.5 21.4-2.7 32.7-3.5zM416 240c0-21.9-10.6-39.9-24.1-53.4c28.3-4.4 54.2-11.4 76.2-20.5c16.3-6.8 31.5-15.2 43.9-25.5V176c0 19.3-16.5 37.1-43.8 50.9c-14.6 7.4-32.4 13.7-52.4 18.5c.1-1.8 .2-3.5 .2-5.3zm-32 96c0 18-14.3 34.6-38.4 48c-1.8 1-3.6 1.9-5.5 2.9C304.9 404.7 251.6 416 192 416c-62.8 0-118.6-12.6-153.6-32C14.3 370.6 0 354 0 336V300.6c12.5 10.3 27.6 18.7 43.9 25.5C83.4 342.6 135.8 352 192 352s108.6-9.4 148.1-25.9c7.8-3.2 15.3-6.9 22.4-10.9c6.1-3.4 11.8-7.2 17.2-11.2c1.5-1.1 2.9-2.3 4.3-3.4V304v5.7V336zm32 0V304 278.1c19-4.2 36.5-9.5 52.1-16c16.3-6.8 31.5-15.2 43.9-25.5V272c0 10.5-5 21-14.9 30.9c-16.3 16.3-45 29.7-81.3 38.4c.1-1.7 .2-3.5 .2-5.3zM192 448c56.2 0 108.6-9.4 148.1-25.9c16.3-6.8 31.5-15.2 43.9-25.5V432c0 44.2-86 80-192 80S0 476.2 0 432V396.6c12.5 10.3 27.6 18.7 43.9 25.5C83.4 438.6 135.8 448 192 448z"/></symbol>
<symbol viewBox="0 0 512 512" fill="currentColor" id="hand"><path d="M288 32V0H224V32 256H192V64 32H128V64 336c0 1.5 0 3.1 .1 4.6L84.5 299.1l-29-27.6L.3 329.4l29 27.6 95.5 91c43.1 41.1 100.4 64 160 64H304c97.2 0 176-78.8 176-176V128 96H416v32V256H384V64 32H320V64 256H288V32z"/></symbol>
<symbol viewBox="0 0 512 512" fill="currentColor" id="head"><path d="M0 224.3C0 100.4 100.4 0 224.3 0H256C358.1 0 441.6 79.7 447.7 180.3L505 252l7 8.8V272v16 32H480 448v96 32H416 320v32 32H288 96 64V480 381.2C23 339.3 0 283 0 224.3zm352-.3a32 32 0 1 0 0-64 32 32 0 1 0 0 64z"/></symbol>
<symbol viewBox="0 0 512 512" fill="currentColor" id="heart"><path d="M39.8 263.8L64 288 256 480 448 288l24.2-24.2c25.5-25.5 39.8-60 39.8-96C512 92.8 451.2 32 376.2 32c-36 0-70.5 14.3-96 39.8L256 96 231.8 71.8c-25.5-25.5-60-39.8-96-39.8C60.8 32 0 92.8 0 167.8c0 36 14.3 70.5 39.8 96z"/></symbol>
<symbol viewBox="0 0 640 512" fill="currentColor" id="level"><path d="M608 0H512V512h96V0zM352 128V512h96V128H352zM288 256H192V512h96V256zM128 384H32V512h96V384z"/></symbol>
<symbol viewBox="0 0 576 512" fill="currentColor" id="star"><path d="M288.1 0l86.5 164 182.7 31.6L428 328.5 454.4 512 288.1 430.2 121.7 512l26.4-183.5L18.9 195.6 201.5 164 288.1 0z"/></symbol>
<symbol viewBox="0 0 640 512" fill="currentColor" id="torso"><path d="M225.3 0H176L0 144 88 256l72-58.9V512H480V197.1L552 256l88-112L464 0H414.7c-7.6 45.4-47.1 80-94.7 80s-87.1-34.6-94.7-80z"/></symbol>

</svg>